<mxfile host="app.diagrams.net" modified="2023-09-25T18:18:39.873Z" agent="Mozilla/5.0 (Windows NT 10.0; Win64; x64) AppleWebKit/537.36 (KHTML, like Gecko) Chrome/116.0.0.0 Safari/537.36" version="21.8.2" etag="2tUZHk3CysmoUD6AaMEd" type="github">
  <diagram name="Page-1" id="uZAxyBi0gPoGljh1J3fm">
    <mxGraphModel>
      <root>
        <mxCell id="0" />
        <mxCell id="1" parent="0" />
      </root>
    </mxGraphModel>
  </diagram>
</mxfile>
